<svg width="127" height="127" viewBox="0 0 127 127" fill="none" xmlns="http://www.w3.org/2000/svg">
<rect x="125" y="9" width="1" height="15" rx="0.5" transform="rotate(90 125 9)" fill="#0C2B55"/>
<rect x="98" y="9" width="1" height="15" rx="0.5" transform="rotate(90 98 9)" fill="#0C2B55"/>
<rect x="71" y="9" width="1" height="15" rx="0.5" transform="rotate(90 71 9)" fill="#0C2B55"/>
<rect x="44" y="9" width="1" height="15" rx="0.5" transform="rotate(90 44 9)" fill="#0C2B55"/>
<rect x="17" y="9" width="1" height="15" rx="0.5" transform="rotate(90 17 9)" fill="#0C2B55"/>
<rect x="125" y="36" width="1" height="15" rx="0.5" transform="rotate(90 125 36)" fill="#0C2B55"/>
<rect x="71" y="36" width="1" height="15" rx="0.5" transform="rotate(90 71 36)" fill="#0C2B55"/>
<rect x="44" y="36" width="1" height="15" rx="0.5" transform="rotate(90 44 36)" fill="#0C2B55"/>
<rect x="17" y="36" width="1" height="15" rx="0.5" transform="rotate(90 17 36)" fill="#0C2B55"/>
<rect x="125" y="63" width="1" height="15" rx="0.5" transform="rotate(90 125 63)" fill="#0C2B55"/>
<rect x="98" y="63" width="1" height="15" rx="0.5" transform="rotate(90 98 63)" fill="#0C2B55"/>
<rect x="71" y="63" width="1" height="15" rx="0.5" transform="rotate(90 71 63)" fill="#0C2B55"/>
<rect x="44" y="63" width="1" height="15" rx="0.5" transform="rotate(90 44 63)" fill="#0C2B55"/>
<rect x="125" y="90" width="1" height="15" rx="0.5" transform="rotate(90 125 90)" fill="#0C2B55"/>
<rect x="98" y="90" width="1" height="15" rx="0.5" transform="rotate(90 98 90)" fill="#0C2B55"/>
<rect x="71" y="90" width="1" height="15" rx="0.5" transform="rotate(90 71 90)" fill="#0C2B55"/>
<rect x="44" y="90" width="1" height="15" rx="0.5" transform="rotate(90 44 90)" fill="#0C2B55"/>
<rect x="17" y="90" width="1" height="15" rx="0.5" transform="rotate(90 17 90)" fill="#0C2B55"/>
<rect x="125" y="117" width="1" height="15" rx="0.5" transform="rotate(90 125 117)" fill="#0C2B55"/>
<rect x="98" y="117" width="1" height="15" rx="0.5" transform="rotate(90 98 117)" fill="#0C2B55"/>
<rect x="44" y="117" width="1" height="15" rx="0.5" transform="rotate(90 44 117)" fill="#0C2B55"/>
<rect x="17" y="117" width="1" height="15" rx="0.5" transform="rotate(90 17 117)" fill="#0C2B55"/>
<rect x="118" y="17" width="1" height="15" rx="0.5" transform="rotate(-180 118 17)" fill="#0C2B55"/>
<rect x="91" y="17" width="1" height="15" rx="0.5" transform="rotate(-180 91 17)" fill="#0C2B55"/>
<rect x="64" y="17" width="1" height="15" rx="0.5" transform="rotate(-180 64 17)" fill="#0C2B55"/>
<rect x="37" y="17" width="1" height="15" rx="0.5" transform="rotate(-180 37 17)" fill="#0C2B55"/>
<rect x="10" y="17" width="1" height="15" rx="0.5" transform="rotate(-180 10 17)" fill="#0C2B55"/>
<rect x="118" y="44" width="1" height="15" rx="0.5" transform="rotate(-180 118 44)" fill="#0C2B55"/>
<rect x="64" y="44" width="1" height="15" rx="0.5" transform="rotate(-180 64 44)" fill="#0C2B55"/>
<rect x="37" y="44" width="1" height="15" rx="0.5" transform="rotate(-180 37 44)" fill="#0C2B55"/>
<rect x="10" y="44" width="1" height="15" rx="0.5" transform="rotate(-180 10 44)" fill="#0C2B55"/>
<rect x="118" y="71" width="1" height="15" rx="0.5" transform="rotate(-180 118 71)" fill="#0C2B55"/>
<rect x="91" y="71" width="1" height="15" rx="0.5" transform="rotate(-180 91 71)" fill="#0C2B55"/>
<rect x="64" y="71" width="1" height="15" rx="0.5" transform="rotate(-180 64 71)" fill="#0C2B55"/>
<rect x="37" y="71" width="1" height="15" rx="0.5" transform="rotate(-180 37 71)" fill="#0C2B55"/>
<rect x="118" y="98" width="1" height="15" rx="0.5" transform="rotate(-180 118 98)" fill="#0C2B55"/>
<rect x="91" y="98" width="1" height="15" rx="0.5" transform="rotate(-180 91 98)" fill="#0C2B55"/>
<rect x="64" y="98" width="1" height="15" rx="0.5" transform="rotate(-180 64 98)" fill="#0C2B55"/>
<rect x="37" y="98" width="1" height="15" rx="0.5" transform="rotate(-180 37 98)" fill="#0C2B55"/>
<rect x="10" y="98" width="1" height="15" rx="0.5" transform="rotate(-180 10 98)" fill="#0C2B55"/>
<rect x="118" y="125" width="1" height="15" rx="0.5" transform="rotate(-180 118 125)" fill="#0C2B55"/>
<rect x="91" y="125" width="1" height="15" rx="0.5" transform="rotate(-180 91 125)" fill="#0C2B55"/>
<rect x="37" y="125" width="1" height="15" rx="0.5" transform="rotate(-180 37 125)" fill="#0C2B55"/>
<rect x="10" y="125" width="1" height="15" rx="0.5" transform="rotate(-180 10 125)" fill="#0C2B55"/>
<circle cx="90.5" cy="36.5" r="7" transform="rotate(90 90.5 36.5)" stroke="#0C2B55"/>
<circle cx="63.5" cy="117.5" r="7" transform="rotate(90 63.5 117.5)" stroke="#0C2B55"/>
<circle cx="9.5" cy="63.5" r="7" transform="rotate(90 9.5 63.5)" stroke="#0C2B55"/>
</svg>
